<svg width="421" height="421" viewBox="0 0 421 421" fill="none" xmlns="http://www.w3.org/2000/svg">
<path d="M118.626 399.613C99.9787 410.796 66.7562 424.809 32.8064 410.408L10.8605 401.099L54.8386 351.801C19.7446 313.106 0.329458 262.722 0.382923 210.484C0.436387 158.246 19.9546 107.902 55.1277 69.2793C90.3009 30.6567 138.604 6.52745 190.61 1.60129C242.616 -3.32488 294.591 11.3056 336.39 42.6371C378.19 73.9685 406.813 119.752 416.674 171.051C426.535 222.351 416.926 275.484 389.721 320.079C362.517 364.675 319.67 397.532 269.544 412.238C219.418 426.944 165.611 422.443 118.626 399.613ZM34.3636 210.366C34.2666 234.447 39.1537 258.287 48.7175 280.388C58.2812 302.488 72.3147 322.371 89.9352 338.784L102.066 350.184L74.3921 381.205C88.807 378.28 101.362 370.482 107.728 365.953L116.463 359.738L125.858 364.9C151.827 379.118 180.957 386.569 210.564 386.566C307.721 386.566 386.764 307.524 386.764 210.366C386.764 113.209 307.721 34.1662 210.564 34.1662C113.407 34.1662 34.3636 113.209 34.3636 210.366Z" fill="#03A389"/>
<path d="M17.2794 210.366C17.2794 103.619 103.815 17.0831 210.563 17.0831C317.31 17.0831 403.846 103.619 403.846 210.366C403.846 317.114 317.31 403.65 210.563 403.65C178.075 403.697 146.104 395.517 117.63 379.873C104.27 389.379 71.6754 408.341 39.4761 394.682L78.2355 351.234C58.9681 333.181 43.6153 311.362 33.1296 287.13C22.644 262.898 17.249 236.77 17.2794 210.366Z" fill="#08E6C2"/>
<path opacity="0.1" d="M370.919 210.785C370.919 109.796 293.463 26.9116 194.719 18.262C200.349 17.7689 206.044 17.502 211.802 17.502C318.549 17.502 405.085 104.038 405.085 210.785C405.085 317.533 318.549 404.068 211.802 404.068C206.053 404.068 200.367 403.798 194.746 403.306C293.477 394.644 370.919 311.765 370.919 210.785Z" fill="black"/>
<path d="M255.937 148.96C243.291 127.592 218.271 126.596 218.271 126.596C218.271 126.596 193.891 123.479 178.252 156.023C163.674 186.356 143.555 215.644 175.013 222.745L180.695 205.06L184.214 224.062C188.693 224.384 193.186 224.461 197.673 224.292C231.361 223.204 263.444 224.61 262.411 212.521C261.038 196.451 268.105 169.521 255.937 148.96Z" fill="#2F2E41"/>
<path d="M173.217 336.092C172.846 338.442 172.307 340.763 171.604 343.036C170.813 345.261 169.591 347.319 168.867 349.568C166.561 356.734 169.758 364.724 174.865 370.255C179.293 375.033 185.01 378.427 191.324 380.029C195.973 381.024 200.715 381.522 205.469 381.515C218.615 381.961 232.1 382.36 244.557 378.135C248.492 376.767 252.294 375.04 255.913 372.976C257.056 372.432 258.062 371.639 258.86 370.656C259.694 369.216 260.065 367.554 259.923 365.896C259.895 360.323 258.765 354.778 259.034 349.211C259.182 346.128 259.759 343.047 259.475 339.973C259.082 336.482 257.619 333.198 255.288 330.57C252.956 327.942 249.87 326.099 246.45 325.293C242.916 324.534 239.251 324.947 235.653 325.293C226.315 326.191 216.936 326.61 207.555 326.55C197.969 326.488 188.443 325.025 178.905 324.872C176.084 324.827 176.141 325.697 175.243 328.427C174.416 330.939 173.739 333.499 173.217 336.092Z" fill="#2F2E41"/>
<path d="M200.421 198.478C199.96 200.89 199.462 203.39 198.013 205.372C196.345 207.653 193.626 208.956 191.832 211.138C189.132 214.424 188.977 219.046 188.966 223.299C188.955 227.216 189.035 231.395 191.219 234.646C192.774 236.667 194.704 238.368 196.903 239.657C205.096 245.179 213.949 250.799 223.827 250.981C227.919 251.056 232.308 249.999 235.001 246.917C236.163 245.468 237.078 243.837 237.706 242.09C240.232 235.864 241.763 229.279 242.243 222.578C242.607 219.427 242.313 216.236 241.379 213.205C240.179 209.859 237.753 207.106 236.149 203.934C234.254 200.162 233.56 195.9 234.163 191.721C234.243 191.427 234.218 191.114 234.093 190.836C233.961 190.687 233.797 190.571 233.612 190.496C233.428 190.422 233.229 190.391 233.031 190.406L213.445 188.996C211.621 188.905 209.804 188.697 208.007 188.374C206.951 188.159 204.162 186.659 203.156 187.058C201.292 187.796 200.803 196.478 200.421 198.478Z" fill="#A0616A"/>
<path opacity="0.1" d="M200.421 199.09C199.96 201.502 199.462 204.002 198.013 205.984C196.345 208.264 193.626 209.567 191.832 211.75C189.132 215.035 188.977 219.658 188.966 223.91C188.955 227.828 189.035 232.006 191.219 235.258C192.774 237.278 194.704 238.979 196.903 240.269C205.096 245.79 213.949 251.41 223.827 251.592C227.919 251.668 232.308 250.611 235.001 247.528C236.163 246.08 237.077 244.449 237.706 242.701C240.232 236.475 241.763 229.891 242.243 223.189C242.607 220.039 242.313 216.847 241.379 213.816C240.179 210.47 237.753 207.718 236.149 204.546C234.254 200.774 233.56 196.511 234.163 192.333C234.243 192.039 234.218 191.726 234.093 191.448C233.961 191.299 233.797 191.183 233.612 191.108C233.428 191.033 233.229 191.002 233.031 191.017L213.445 189.607C211.621 189.517 209.804 189.309 208.007 188.985C206.951 188.77 204.162 187.271 203.156 187.67C201.292 188.408 200.803 197.089 200.421 199.09Z" fill="black"/>
<path d="M219.151 201.105C235.021 201.105 247.886 188.239 247.886 172.37C247.886 156.5 235.021 143.635 219.151 143.635C203.281 143.635 190.416 156.5 190.416 172.37C190.416 188.239 203.281 201.105 219.151 201.105Z" fill="#A0616A"/>
<path d="M198.363 203.55C197.393 205.307 190.238 209.669 188.856 211.125C181.138 219.261 167.052 218.955 159.993 227.669C157.51 230.734 156.219 234.586 155.27 238.416C153.928 243.832 153.212 249.739 155.46 254.846C157.623 259.76 162.178 263.157 165.27 267.547C168.665 272.367 170.191 278.219 171.654 283.93C172.734 288.146 173.823 292.468 173.402 296.8C172.924 301.726 170.54 306.237 169.133 310.981C167.726 315.726 167.483 321.377 170.737 325.106C173.128 327.846 176.878 328.932 180.462 329.543C185.053 330.233 189.682 330.636 194.323 330.749C198.42 330.93 202.937 330.966 206.087 328.339C208.572 326.266 209.652 322.903 209.792 319.67C209.932 316.437 209.259 313.232 208.838 310.024C208.401 306.698 208.233 303.342 208.093 299.991C207.462 284.951 207.376 269.903 207.835 254.844C208.065 251.714 207.912 248.568 207.378 245.476C206.499 241.447 204.322 237.847 202.505 234.146C198.875 227.175 197.23 219.341 197.752 211.498C198.302 203.439 201.817 197.299 198.363 203.55Z" fill="#06BD9F"/>
<path d="M238.715 204.161C240.193 205.681 245.216 206.182 247.096 207.16C248.865 207.977 250.711 208.616 252.606 209.068C259.466 211.047 265.99 214.041 271.963 217.952C273.204 218.678 274.301 219.625 275.2 220.748C276.146 222.288 276.757 224.011 276.99 225.804C277.911 230.365 278.836 234.981 278.629 239.629C278.41 244.564 276.923 249.342 275.449 254.056L269.94 271.67C265.827 284.817 261.689 298.094 260.532 311.82C259.891 319.428 260.176 327.085 261.379 334.625C261.492 334.991 261.526 335.378 261.478 335.759C261.43 336.14 261.302 336.506 261.101 336.833C260.738 337.192 260.261 337.412 259.752 337.454C257.093 337.87 254.52 336.514 252.111 335.314C244.747 331.65 236.889 329.079 228.783 327.681C231.951 323.104 234.394 318.066 236.029 312.745C236.957 309.367 237.688 305.937 238.218 302.473L240.781 287.65C241.823 282.232 242.557 276.76 242.979 271.258C243.173 269.194 243.053 267.112 242.622 265.084C242.032 263.153 241.248 261.288 240.282 259.515C236.058 250.729 234.076 240.703 235.738 231.097C236.465 226.893 237.879 222.684 237.289 218.459C236.723 214.396 237.311 211.239 236.269 207.218C231.99 190.711 235.934 201.303 238.715 204.161Z" fill="#06BD9F"/>
<path d="M159.921 241.56C157.996 245.556 154.777 248.96 153.681 253.258C153.255 255.267 153.072 257.32 153.137 259.372C152.947 262.465 153.253 265.569 154.044 268.566C154.655 270.461 155.65 272.209 156.367 274.067C157.366 276.663 157.811 279.44 157.674 282.218C157.48 286.067 156.173 289.803 156.07 293.656C155.91 299.714 158.712 305.409 161.446 310.818C162.134 309.114 163.187 307.58 164.529 306.325C165.872 305.07 167.473 304.124 169.22 303.552C170.966 302.98 172.817 302.796 174.642 303.015C176.467 303.233 178.222 303.847 179.785 304.814C180.411 304.045 180.708 303.06 180.612 302.073C180.814 295.044 181.009 288.015 181.196 280.986C181.492 270.115 181.774 259.099 179.274 248.516C178.145 243.737 176.388 238.977 173.167 235.271C171.471 233.319 165.714 228.179 162.931 230.365C161.679 231.348 161.971 234.024 161.773 235.38C161.473 237.522 160.849 239.606 159.921 241.56Z" fill="#06BD9F"/>
<path d="M279.193 230.045C279.967 232.926 280.299 235.909 280.176 238.89C280.213 244.966 280.133 251.041 279.934 257.116C279.965 260.231 279.566 263.336 278.751 266.343C278.129 268.299 277.169 270.132 276.527 272.081C274.602 277.922 275.654 284.256 275.819 290.404C275.935 292.393 275.766 294.389 275.315 296.331C274.299 300.141 271.569 303.221 269.664 306.674C267.855 309.953 266.763 313.63 264.602 316.689C262.441 319.748 258.7 322.172 255.074 321.233C252.327 320.522 250.375 318.09 249.025 315.594C246.078 310.105 245.07 303.783 246.165 297.651C247.52 290.19 251.903 283.571 253.483 276.154C255.654 265.969 252.355 255.459 252.453 245.046C252.408 243.414 252.63 241.786 253.109 240.224C253.938 237.846 255.718 235.946 257.363 234.039C259.419 231.655 261.328 229.149 263.081 226.535C264.259 224.778 265.858 220.261 267.946 219.886C272.607 219.047 278.036 226.444 279.193 230.045Z" fill="#06BD9F"/>
<path d="M135.735 331.562C133.157 330.914 130.501 330.632 127.845 330.723C125.054 330.878 122.328 331.624 119.848 332.914C117.368 334.203 115.191 336.006 113.462 338.202C111.732 340.397 110.49 342.936 109.818 345.649C109.146 348.363 109.059 351.188 109.563 353.937C110.207 356.915 111.259 359.79 112.69 362.48C114.782 366.726 117.291 370.963 121.165 373.684C123.499 375.18 126.012 376.376 128.645 377.244L149.046 384.93C152.047 386.06 155.049 387.191 158.08 388.239C173.307 393.503 189.182 396.659 205.264 397.62C210.158 398.078 215.093 397.828 219.915 396.877C221.081 396.725 222.149 396.148 222.915 395.256C223.304 394.579 223.533 393.822 223.586 393.042L224.841 384.254C225.122 383.03 225.085 381.755 224.734 380.549C224.159 379.072 222.718 378.143 221.343 377.353C207.931 369.65 192.271 365.4 180.981 354.827C178.324 352.338 176.1 348.393 172.871 346.702C169.209 344.785 164.897 343.691 161.112 341.924C152.837 338.062 144.702 333.624 135.735 331.562Z" fill="#2F2E41"/>
<path opacity="0.1" d="M156.102 343.41C163.313 345.67 193.758 361.324 198.976 366.789C198.276 367.041 174.544 353.742 173.832 353.528C167.305 351.735 160.912 349.483 154.703 346.787C153.466 346.215 146.669 343.527 146.977 341.966C147.324 340.205 154.822 343.009 156.102 343.41Z" fill="black"/>
<path d="M246.063 402.178C246.472 402.208 246.878 402.088 247.206 401.841C247.35 401.657 247.455 401.445 247.516 401.219C247.578 400.994 247.594 400.758 247.563 400.526L247.529 388.553C244.087 386.912 240.235 386.387 236.455 385.881L218.818 383.524C219.223 383.578 216.06 391.12 216.545 392.127C217.4 393.902 223.932 395.475 225.776 396.313C232.185 399.226 238.844 402.429 246.063 402.178Z" fill="#A0616A"/>
<path d="M190.725 388.511C187.395 389.042 183.678 389.511 181.521 392.103C178.787 395.39 179.951 400.291 181.255 404.363C181.335 404.889 181.519 405.393 181.797 405.847C182.075 406.3 182.441 406.693 182.873 407.002C183.306 407.311 183.796 407.531 184.314 407.647C184.833 407.764 185.37 407.775 185.893 407.68C188.93 407.873 192.162 408.023 194.815 406.534C196.017 405.739 197.175 404.879 198.282 403.957C200.238 402.655 202.389 401.672 204.654 401.044C208.818 399.734 213.104 398.851 217.446 398.408C219.157 398.33 220.851 398.031 222.486 397.519C223.302 397.256 224.047 396.808 224.662 396.211C225.278 395.613 225.747 394.882 226.034 394.074C226.649 391.898 225.384 389.68 224.172 387.771C222.774 385.272 220.96 383.03 218.807 381.142C215.521 378.589 213.895 380.549 210.585 382.182C204.319 385.275 197.625 387.408 190.725 388.511Z" fill="#A0616A"/>
<path d="M182.022 391.511L160.877 385.261C158.341 384.378 155.69 383.865 153.008 383.736C151.665 383.681 150.325 383.914 149.079 384.417C147.833 384.921 146.709 385.686 145.782 386.659C144.142 388.583 143.673 391.213 143.264 393.708L142.389 399.045C141.806 401.736 141.641 404.5 141.9 407.241C142.041 408.612 142.492 409.932 143.22 411.102C143.948 412.272 144.933 413.261 146.1 413.993C149.027 415.589 152.613 414.81 155.879 414.142C162.475 412.794 169.184 412.074 175.917 411.993C178.448 411.963 181.102 411.995 183.339 410.809C184.637 410.04 185.727 408.965 186.516 407.678C187.304 406.391 187.766 404.931 187.861 403.425C188.277 398.866 186.758 392.911 182.022 391.511Z" fill="#2F2E41"/>
<path d="M254.374 386.065C257.115 385.584 259.535 384.026 262.161 383.107C265.858 381.813 269.865 381.813 273.782 381.827C275.222 381.695 276.67 381.985 277.948 382.661C279.674 383.81 280.116 386.109 280.409 388.161L282.179 400.541C282.653 402.851 282.702 405.227 282.324 407.555C281.805 409.849 280.241 412.061 277.964 412.653C275.199 413.371 272.489 411.605 269.878 410.445C263.353 407.545 255.767 408.286 248.964 406.118C248.313 405.988 247.698 405.721 247.158 405.335C246.619 404.949 246.167 404.454 245.834 403.88C245.601 403.193 245.518 402.463 245.59 401.741C245.707 397.761 244.867 392.327 246.065 388.524C247.143 385.104 251.314 386.065 254.374 386.065Z" fill="#2F2E41"/>
<path d="M299.123 326.579C303.348 325.52 307.728 325.22 312.058 325.695C315.516 326.076 319.079 327.039 321.603 329.432C324.676 332.345 325.664 336.851 325.746 341.084C325.881 349.516 323.084 357.734 317.834 364.333C316.551 366.002 315.027 367.47 313.31 368.688C311.458 369.847 309.484 370.798 307.424 371.524L261.737 389.545C249.718 394.286 237.656 399.04 225.119 402.166C224.776 402.331 224.404 402.426 224.024 402.446C223.644 402.465 223.264 402.408 222.906 402.278C222.548 402.149 222.22 401.949 221.94 401.69C221.661 401.432 221.436 401.12 221.279 400.773C217.276 395.055 213.918 388.912 211.265 382.456C211.14 382.303 211.053 382.121 211.012 381.927C210.972 381.733 210.979 381.532 211.032 381.341C211.086 381.15 211.184 380.975 211.32 380.83C211.456 380.686 211.624 380.576 211.811 380.51L244.126 361.943C246.496 360.707 248.704 359.185 250.703 357.411C252.1 356.057 253.243 354.465 254.08 352.71C254.75 351.311 254.812 348.009 255.668 346.975C256.506 345.962 259.371 345.882 260.695 345.483C262.562 344.912 264.389 344.221 266.167 343.415C273.396 340.181 279.833 335.482 286.763 331.696C290.649 329.473 294.803 327.754 299.123 326.579Z" fill="#2F2E41"/>
<path opacity="0.1" d="M280.803 340.445C275.251 344.615 268.062 348.448 262.56 352.728C260.682 354.188 229.376 371.789 228.934 374.126C234.067 374.991 266.768 352.114 271.446 349.832C276.125 347.549 280.273 344.33 284.382 341.134C285.43 340.32 289.868 337.872 286.862 336.962C285.168 336.45 282.053 339.612 280.803 340.445Z" fill="black"/>
<path d="M242.601 204.565H193.866C191.886 204.565 189.987 205.352 188.587 206.752C187.187 208.152 186.401 210.051 186.401 212.031V214.765H185.871V220.878H186.401V225.158H185.871V228.826H186.401V273.938C186.401 275.918 187.187 277.817 188.587 279.217C189.987 280.617 191.886 281.403 193.866 281.403H242.601C244.581 281.403 246.48 280.617 247.88 279.217C249.28 277.817 250.066 275.918 250.066 273.938V212.031C250.066 210.051 249.28 208.152 247.88 206.752C246.48 205.352 244.581 204.565 242.601 204.565Z" fill="#D0CDE1"/>
<path d="M250.347 146.901L225.629 133.953L191.494 139.25L184.432 170.442L202.012 169.765L206.923 158.306V169.577L215.035 169.265L219.743 151.02L222.686 170.442L251.524 169.853L250.347 146.901Z" fill="#2F2E41"/>
<path d="M166.387 322.539C167.505 324.44 169.094 326.021 171.001 327.129C172.252 327.7 173.616 327.978 174.991 327.941C176.366 327.905 177.714 327.554 178.932 326.917C181.366 325.612 183.358 323.615 184.656 321.178C187.342 316.434 187.899 310.758 187.564 305.317C187.228 299.875 186.067 294.517 185.552 289.09C185.178 285.145 185.148 281.176 185.118 277.213C185.025 276.38 185.2 275.539 185.617 274.811C186.335 274.097 187.264 273.633 188.267 273.488C193.689 271.877 197.287 266.795 199.867 261.762C201.59 258.401 203.088 254.728 202.756 250.966C202.424 247.204 199.72 243.414 195.963 243.03C192.865 242.714 190.005 244.681 187.771 246.849C182.134 252.354 178.512 259.593 177.486 267.404C176.995 271.229 177.136 275.159 176.095 278.872C173.874 286.801 166.923 291.662 163.46 298.797C159.643 306.658 161.75 315.583 166.387 322.539Z" fill="#A0616A"/>
<path d="M268.667 292.247C267.877 294.086 266.726 295.748 265.283 297.135C263.84 298.522 262.133 299.605 260.264 300.322C257.941 301.255 255.379 301.412 252.959 300.769C251.759 300.436 250.652 299.831 249.724 299.001C248.796 298.171 248.072 297.138 247.608 295.983C247.238 294.819 247.035 293.608 247.005 292.387C246.658 287.04 246.792 281.531 248.734 276.537C249.483 274.611 250.493 272.784 251.084 270.804C251.665 268.517 251.963 266.167 251.969 263.807L252.608 249.218C252.713 248.159 252.64 247.089 252.391 246.055C251.754 243.944 249.781 242.572 247.971 241.313C243.599 238.273 239.279 234.725 237.161 229.84C236.433 228.369 236.172 226.71 236.414 225.087C237.011 222.19 239.935 220.315 242.824 219.683C244.715 219.269 246.67 219.243 248.571 219.605C250.472 219.967 252.28 220.711 253.887 221.79C255.493 222.87 256.864 224.264 257.917 225.887C258.97 227.511 259.684 229.331 260.015 231.238C260.301 232.884 260.297 234.566 260.465 236.229C260.819 239.756 261.939 243.155 262.64 246.63C264.365 255.189 263.471 264.037 265.177 272.595C266.604 279.75 271.983 284.419 268.667 292.247Z" fill="#A0616A"/>
<path d="M218.885 237.386C222.262 237.386 224.999 234.649 224.999 231.272C224.999 227.895 222.262 225.158 218.885 225.158C215.509 225.158 212.771 227.895 212.771 231.272C212.771 234.649 215.509 237.386 218.885 237.386Z" fill="#08E6C2"/>
</svg>
