<svg width="439" height="468" viewBox="0 0 439 468" fill="none" xmlns="http://www.w3.org/2000/svg">
<path d="M228.162 422.125C179.867 422.148 133.031 405.57 95.5042 375.169C57.9772 344.769 32.0396 302.394 22.0381 255.146C12.0366 207.897 18.5792 158.647 40.5692 115.648C62.5592 72.6492 98.6604 38.5154 142.823 18.9669C186.985 -0.581596 236.524 -4.35681 283.139 8.27392C329.753 20.9047 370.61 49.1738 398.862 88.3437C427.114 127.514 441.044 175.204 438.318 223.422C435.591 271.641 416.375 317.457 383.888 353.193L427.866 402.492L405.92 411.801C371.97 426.201 338.747 412.189 320.1 401.006C291.443 414.898 260.01 422.119 228.162 422.125ZM228.162 35.5583C131.005 35.5583 51.9622 114.602 51.9622 211.758C51.9622 308.916 131.005 387.959 228.162 387.959C257.769 387.962 286.899 380.51 312.868 366.292L322.263 361.13L330.998 367.345C337.364 371.875 349.919 379.673 364.334 382.597L336.66 351.576L348.791 340.176C366.411 323.763 380.445 303.88 390.009 281.78C399.572 259.68 404.459 235.839 404.362 211.758C404.362 114.602 325.319 35.5583 228.162 35.5583Z" fill="#03A389"/>
<path d="M421.445 211.758C421.445 105.011 334.909 18.475 228.162 18.475C121.415 18.475 34.8789 105.011 34.8789 211.758C34.8789 318.506 121.415 405.041 228.162 405.041C260.65 405.089 292.621 396.909 321.094 381.265C334.455 390.771 367.049 409.733 399.249 396.074L360.489 352.626C379.757 334.573 395.109 312.754 405.595 288.522C416.081 264.29 421.476 238.162 421.445 211.758Z" fill="#08E6C2"/>
<path opacity="0.1" d="M69.0451 210.782C69.0451 109.793 146.501 26.9084 245.245 18.2589C239.615 17.7657 233.92 17.4988 228.162 17.4988C121.415 17.4988 34.8789 104.035 34.8789 210.782C34.8789 317.529 121.415 404.065 228.162 404.065C233.911 404.065 239.597 403.795 245.218 403.303C146.487 394.641 69.0451 311.762 69.0451 210.782Z" fill="black"/>
<path d="M18.037 205.004C27.9975 205.004 36.072 196.93 36.072 186.969C36.072 177.009 27.9975 168.934 18.037 168.934C8.07652 168.934 0.00195312 177.009 0.00195312 186.969C0.00195312 196.93 8.07652 205.004 18.037 205.004Z" fill="#2F2E41"/>
<path d="M83.4109 240.51L74.3269 231.68L56.0859 237.346L57.8379 258.467L95.3439 256.725L83.8219 241.069L83.4109 240.51Z" fill="#FBBEBE"/>
<path d="M63.5444 240.328C79.6478 240.328 92.7022 227.274 92.7022 211.171C92.7022 195.067 79.6478 182.013 63.5444 182.013C47.4411 182.013 34.3867 195.067 34.3867 211.171C34.3867 227.274 47.4411 240.328 63.5444 240.328Z" fill="#FBBEBE"/>
<path d="M244.557 277.934C244.557 277.934 280.377 339.493 288.902 348.734C292.956 353.283 297.276 357.587 301.837 361.626C301.837 361.626 297.829 374.92 291.446 374.445C287.808 374.226 284.24 373.347 280.917 371.85C280.917 371.85 278.068 364.465 273.099 361.227C268.129 357.988 227.53 318.047 228.479 305.281C229.428 292.515 244.557 277.934 244.557 277.934Z" fill="#2F2E41"/>
<path d="M116.988 365.781C116.988 365.781 155.181 395.425 207.087 367.57L211.56 364.278C211.56 364.278 204.011 381.26 203.311 385.865C202.499 391.203 182.845 422.475 179.638 423.973C176.431 425.471 175.724 426.853 175.724 426.853L189.334 441.834L194.367 438.131C194.367 438.131 213.989 410.33 219.728 405.244C225.467 400.159 252.811 347.713 252.811 347.713C252.811 347.713 263.265 327.952 237.174 326.465C211.084 324.979 199.078 332.09 199.078 332.09L152.773 339.446L116.988 365.781Z" fill="#2F2E41"/>
<path d="M302.279 358.714L321.597 372.08C321.597 372.08 346.243 379.802 331.061 384.941C315.88 390.079 275.874 391.938 274.966 384.848C274.058 377.759 276.544 366.6 278.54 367.21C280.536 367.82 294.388 371.417 302.279 358.714Z" fill="#2F2E41"/>
<path d="M196.076 433.539L199.652 453.173C199.652 453.173 209.819 472.618 197.611 466.585C185.404 460.551 160.254 437.635 163.968 432.83C167.682 428.026 175.879 422.815 176.711 424.381C177.544 425.947 183.705 436.429 196.076 433.539Z" fill="#2F2E41"/>
<path d="M159.241 345.892C159.241 345.892 133.278 376.204 117.516 368.841C101.754 361.477 37.2669 276.193 44.6302 260.43C51.9935 244.668 54.4624 248.023 54.4624 248.023L87.7589 251.102L78.1786 235.741C78.1786 235.741 82.6518 232.449 86.9142 237.07C91.1767 241.691 108.29 253.232 114.251 269.532C120.213 285.832 137.716 285.018 137.716 285.018L159.241 345.892Z" fill="#06BD9F"/>
<path d="M264.085 283.388L219.08 331.161L178.764 259.981L217.091 213.674L264.085 283.388Z" fill="#3F3D56"/>
<path d="M260.687 282.871L220.039 324.852L183.205 260.16L216.985 217.631L260.687 282.871Z" fill="white"/>
<path d="M216.876 329.336L219.081 331.161L217.667 333.925L154.736 352.655L154.141 350.499L157.004 347.538L216.876 329.336Z" fill="#B3B3B3"/>
<path d="M219.638 330.75L154.471 351.125L114.746 276.062L178.763 259.981L219.638 330.75Z" fill="#D0CDE1"/>
<path d="M214.732 320.569L211.936 322.626L180.906 268.748L184.113 267.25L214.732 320.569Z" fill="#3F3D56"/>
<path d="M208.318 323.565L180.751 331.785L149.457 276.377L176.729 270.099L208.318 323.565Z" fill="#3F3D56"/>
<path d="M130.657 282.455L136.364 280.841C136.364 280.841 168.194 277.241 168.659 287.243C169.123 297.245 132.092 292.604 132.092 292.604L127.154 285.895L130.657 282.455Z" fill="#FBBEBE"/>
<path d="M158.574 327.419L166.518 324.158C166.518 324.158 190.499 313.406 183.619 306.401C176.74 299.396 155.525 311.562 155.525 311.562L151.463 315.413L158.574 327.419Z" fill="#FBBEBE"/>
<path d="M151.495 311.942C151.495 311.942 164.43 324.833 161.487 327.862C158.543 330.89 110.278 370.719 98.3137 357.975C86.3492 345.231 28.0564 281.247 50.739 275.759C73.4217 270.272 79.4148 283.101 79.4148 283.101L109.359 334.331L151.495 311.942Z" fill="#06BD9F"/>
<path d="M112.762 272.781L134.01 279.986L133.663 295.326L111.191 292.901L112.762 272.781Z" fill="#06BD9F"/>
<path opacity="0.2" d="M131.914 319.887L109.021 333.287L82.8652 293.06L108.113 326.197L131.914 319.887Z" fill="black"/>
<path d="M50.7448 237.43C69.9154 237.43 85.4563 221.889 85.4563 202.718C85.4563 183.548 69.9154 168.007 50.7448 168.007C31.5741 168.007 16.0332 183.548 16.0332 202.718C16.0332 221.889 31.5741 237.43 50.7448 237.43Z" fill="#2F2E41"/>
<path d="M238.299 286.417L213.994 250.862L224.297 238.108L249.552 274.688L238.299 286.417Z" fill="#08E6C2"/>
<path d="M237.615 300.712L200.613 246.919L202.438 244.714L239.267 298.634L237.615 300.712Z" fill="#E6E6E6"/>
<path d="M232.848 305.945L195.846 252.152L197.671 249.947L234.5 303.868L232.848 305.945Z" fill="#E6E6E6"/>
<path d="M228.785 309.796L191.783 256.003L193.608 253.798L230.437 307.719L228.785 309.796Z" fill="#E6E6E6"/>
<path d="M66.1172 179.544H76.8552C82.292 179.544 87.5062 181.704 91.3507 185.549C95.1951 189.393 97.3549 194.607 97.3549 200.044H66.1172V179.544Z" fill="#2F2E41"/>
</svg>
