<svg width="452" height="435" viewBox="0 0 452 435" fill="none" xmlns="http://www.w3.org/2000/svg">
<path d="M394.001 220.81V221.834C393.977 224.405 393.904 226.964 393.78 229.511C391.562 273.107 372.755 314.204 341.212 344.38C309.669 374.556 267.78 391.526 224.129 391.811C180.477 392.097 138.369 375.677 106.435 345.916C74.4998 316.155 55.1565 275.308 52.3688 231.744C52.1361 228.127 52.0198 224.482 52.0198 220.81C51.9584 185.395 62.9497 150.844 83.4611 121.973C85.1012 119.647 86.8072 117.363 88.5791 115.122C89.8005 113.563 91.0567 112.04 92.3247 110.527C121.189 76.3322 162.307 54.8123 206.856 50.5849C251.405 46.3575 295.836 59.7592 330.618 87.9149C332.677 89.5782 334.701 91.2997 336.678 93.0562C338.26 94.4637 339.815 95.9022 341.342 97.3717C371.429 126.151 389.948 164.943 393.407 206.433C393.803 211.179 394.001 215.971 394.001 220.81Z" fill="white" fill-opacity="0.5"/>
<path d="M88.5791 115.122C88.663 115.157 88.7413 115.204 88.8118 115.262C89.7307 116.018 88.5792 117.472 88.7187 118.67C88.8816 120.205 90.9288 120.543 92.4759 120.694C94.0229 120.857 95.9771 122.101 95.2443 123.474C91.3592 124.811 87.4276 123.497 83.4611 121.973C62.9497 150.844 51.9584 185.395 52.0198 220.81C52.0198 224.486 52.1361 228.131 52.3688 231.744C52.694 231.982 53.0501 232.174 53.4273 232.314C54.5905 232.756 55.9398 232.675 57.01 233.303C57.8591 233.803 58.4291 234.687 59.2782 235.153C61.7093 236.479 65.0826 233.931 67.3508 235.513C67.9371 236.047 68.4925 236.614 69.0142 237.212C71.108 239.026 74.551 237.805 76.9705 239.166C78.5292 240.038 79.3318 241.783 80.1693 243.365C82.2514 247.32 85.6247 251.205 90.0798 251.519C91.4848 251.454 92.8928 251.501 94.2905 251.658C95.6631 251.973 97.0124 253.171 96.7914 254.555C96.4076 256.939 97.5824 259.545 97.2683 261.93C96.6983 266.292 90.5218 268.199 89.9983 272.561C89.9966 273.521 89.9422 274.48 89.8355 275.434C89.5563 276.574 88.6955 277.505 88.3931 278.645C87.8115 280.797 89.3586 282.949 91.0452 284.391C92.7435 285.845 94.7674 287.101 95.698 289.125C96.6751 291.277 96.1982 293.778 96.5122 296.116C97.2102 301.222 101.619 305.003 106.155 307.445C107.609 308.053 108.9 308.993 109.924 310.191C111.087 311.877 110.971 314.099 111.366 316.111C112.32 321.032 116.461 325.091 116.577 330.105C116.659 333.676 114.681 336.909 113.495 340.271C112.274 343.795 111.912 347.559 112.436 351.252C119.069 356.877 126.119 361.99 133.525 366.548C133.928 365.952 134.223 365.291 134.398 364.594C134.538 363.822 134.441 363.027 134.119 362.312C133.797 361.597 133.265 360.998 132.595 360.592C133.845 360.12 134.982 359.391 135.933 358.452C136.4 357.971 136.709 357.359 136.817 356.697C136.925 356.036 136.828 355.357 136.538 354.753C138.585 355.009 141.016 355.137 142.366 353.566C143.447 352.31 143.378 350.426 142.947 348.832C142.356 347.283 141.966 345.665 141.784 344.016C146.527 344.247 151.281 344.088 155.998 343.54C155.316 341.239 153.764 339.294 151.671 338.119C153.811 337.758 155.754 335.199 156.429 333.141C157.012 331.04 157.044 328.825 156.522 326.708C156.36 326.164 156.336 325.589 156.452 325.033C156.796 324.295 157.401 323.711 158.15 323.393C161.686 321.357 165.222 319.326 168.759 317.298C169.389 316.98 169.963 316.559 170.457 316.053C171.562 314.739 171.399 312.773 170.829 311.156C170.259 309.539 169.352 308.015 169.131 306.317C168.479 301.234 173.923 297.582 175.761 292.789C176.386 290.876 176.723 288.881 176.761 286.869C176.913 284.705 176.924 282.204 175.272 280.82C173.679 279.482 171.201 279.785 169.538 278.54C168.014 277.4 167.491 275.202 165.827 274.283C164.315 273.445 162.431 273.98 160.744 273.585C157.79 272.898 155.928 269.49 152.904 269.176C151.206 268.99 149.275 269.828 147.879 268.839C146.646 267.955 146.6 266.198 146.367 264.71C145.954 262.39 144.841 260.253 143.177 258.586C141.514 256.918 139.379 255.799 137.061 255.381C135.305 255.102 133.397 255.206 131.897 254.241C130.385 253.264 129.698 251.437 128.5 250.076C126.593 247.901 123.568 247.122 120.742 246.459C116.903 245.563 113.068 244.664 109.238 243.76C107.202 243.272 104.573 243.016 103.468 244.807C103.141 245.488 102.914 246.213 102.793 246.959C102.378 248.302 101.549 249.479 100.426 250.322C99.302 251.166 97.9405 251.634 96.5355 251.658C95.5736 250.016 94.0154 248.808 92.1852 248.285C90.9892 248.084 89.8079 247.805 88.649 247.448C88.0438 247.151 87.5054 246.734 87.0668 246.222C86.6282 245.711 86.2987 245.115 86.0984 244.471C85.898 243.828 85.831 243.15 85.9016 242.48C85.9722 241.81 86.1787 241.161 86.5087 240.573C87.1683 239.393 87.422 238.028 87.2308 236.69C87.0395 235.351 86.414 234.112 85.4502 233.164C83.4961 231.407 80.6695 230.977 78.0406 231.151C77.3544 229.651 78.5059 227.964 79.7389 226.871C80.9836 225.789 82.484 224.719 82.7516 223.09C83.182 220.531 79.9134 218.589 77.4358 219.345C74.9582 220.112 73.3762 222.52 72.3293 224.893C71.8216 226.293 71.1292 227.62 70.2705 228.836C69.8305 229.439 69.2325 229.907 68.5427 230.19C67.8529 230.474 67.0982 230.561 66.3621 230.442C64.3149 229.918 63.5355 227.487 63.0819 225.44C62.355 222.704 61.9874 219.884 61.9885 217.053C62.0063 214.194 63.1418 211.455 65.1524 209.423C68.5373 206.305 73.7484 206.608 78.3198 207.108C77.8302 206.455 77.5955 205.646 77.6597 204.832C77.724 204.018 78.0827 203.256 78.6688 202.688C79.2805 202.145 80.0157 201.759 80.8103 201.564C81.6049 201.37 82.435 201.372 83.2286 201.571C84.6068 201.856 85.8485 202.598 86.753 203.676C88.0558 205.258 88.428 207.41 89.4051 209.202C90.3939 211.005 92.6039 212.54 94.4069 211.575C95.9772 210.737 96.2215 208.574 95.8376 206.84C95.4421 205.119 94.6163 203.432 94.7558 201.664C95.0234 198.302 98.5246 196.267 101.607 194.883C104.69 193.498 108.214 191.626 108.703 188.276C108.725 187.624 108.851 186.98 109.075 186.368C109.416 185.821 109.893 185.373 110.459 185.065C119.451 179.121 128.605 173.096 138.888 169.851C139.423 169.676 139.481 169.862 140.028 169.734C140.795 169.292 140.284 168.071 139.551 167.582C138.818 167.094 137.841 166.71 137.655 165.849C137.527 165.221 137.899 164.593 137.992 163.953C138.016 163.567 137.945 163.18 137.786 162.828C137.626 162.475 137.382 162.167 137.075 161.93C136.769 161.694 136.409 161.536 136.027 161.471C135.646 161.406 135.254 161.435 134.886 161.557C134.06 160.464 135.689 159.196 137.015 158.823C140.985 157.736 145.06 157.073 149.17 156.846C149.645 156.768 150.132 156.849 150.555 157.079C150.857 157.37 151.036 157.767 151.056 158.186C151.075 158.606 150.933 159.017 150.659 159.335C150.1 159.957 149.48 160.522 148.81 161.022C148.142 161.67 147.666 162.489 147.432 163.39C147.198 164.29 147.216 165.237 147.484 166.128C149.636 167.222 151.962 168.35 154.347 167.966C156.72 167.582 158.825 164.907 157.708 162.778C156.673 160.789 153.544 160.336 153.009 158.16C152.381 155.613 155.987 153.345 155.172 150.856C154.823 149.762 153.73 149.111 152.893 148.331C151.907 147.361 151.237 146.116 150.969 144.759C150.701 143.402 150.849 141.996 151.392 140.724C150.03 140.962 148.631 140.871 147.312 140.458C145.993 140.045 144.791 139.323 143.808 138.351C141.993 136.525 140.551 133.629 137.969 133.722C135.607 133.791 133.572 136.548 131.362 135.711C130.815 135.501 130.245 135.083 129.722 135.327C129.549 135.438 129.404 135.587 129.297 135.762C129.19 135.937 129.125 136.134 129.105 136.339C128.547 139.026 129.512 142.085 128.047 144.411C126.453 146.936 122.766 147.285 120.835 149.564C119.788 150.797 119.381 152.461 118.415 153.764C117.45 155.066 115.414 155.904 114.251 154.764C114.821 153.596 114.977 152.27 114.694 151.001C114.41 149.733 113.705 148.599 112.692 147.785C111.621 147.081 110.464 146.519 109.249 146.11C107.893 145.537 106.602 144.82 105.399 143.969C104.8 143.604 104.313 143.081 103.992 142.457C103.738 141.673 103.771 140.823 104.085 140.061C104.674 138.381 105.709 136.893 107.08 135.758C108.452 134.623 110.106 133.882 111.866 133.617C113.402 133.408 115.193 133.477 116.217 132.303C116.752 131.686 117.031 130.744 117.822 130.5C118.32 130.395 118.839 130.457 119.299 130.674C121.219 131.349 123.126 132.023 125.046 132.698C125.685 132.992 126.392 133.108 127.093 133.035C127.44 132.991 127.757 132.815 127.979 132.545C128.202 132.275 128.313 131.931 128.291 131.581C128.105 130.628 126.639 130.174 126.779 129.208C126.847 128.893 127.014 128.608 127.256 128.394C129.33 126.188 131.867 124.467 134.684 123.355C137.501 122.243 140.53 121.767 143.552 121.962C144.273 123.16 143.133 124.567 142.168 125.579C141.214 126.603 140.446 128.417 141.609 129.197C142.079 129.443 142.604 129.563 143.133 129.546C144.548 129.736 145.922 130.152 147.205 130.779C149.194 131.64 151.148 132.593 153.055 133.617C152.775 132.37 152.823 131.071 153.195 129.848C153.405 129.248 153.831 128.747 154.39 128.444C154.95 128.141 155.602 128.057 156.219 128.208C157.359 128.65 157.941 130.162 159.162 130.302C160.779 130.488 161.419 128.092 160.744 126.603C160.07 125.114 158.72 123.881 158.616 122.241C158.534 121.147 158.953 119.787 158.08 119.123C157.77 118.918 157.415 118.79 157.045 118.751C149.74 117.414 142.432 116.072 135.119 114.727C133.816 114.482 131.943 114.668 131.885 115.983C131.85 116.727 132.513 117.46 132.223 118.135C131.908 118.856 130.885 118.798 130.14 119.054C129.581 119.307 129.12 119.736 128.826 120.276C128.532 120.815 128.422 121.436 128.512 122.043C128.711 123.253 129.18 124.402 129.884 125.405C128.454 124.812 126.302 124.707 124.871 124.102C124.663 122.445 124.241 120.823 123.615 119.275C123.579 119.028 123.49 118.793 123.353 118.585C123.217 118.377 123.036 118.201 122.824 118.07C122.612 117.939 122.375 117.856 122.127 117.827C121.88 117.798 121.629 117.824 121.393 117.902C119.509 118.193 117.624 118.472 115.74 118.763C115.267 118.785 114.814 118.961 114.449 119.263C113.716 120.042 114.437 121.287 114.414 122.357C114.346 122.956 114.093 123.518 113.691 123.966C113.288 124.414 112.757 124.726 112.169 124.858C110.985 125.098 109.763 125.083 108.586 124.812C105.946 124.404 103.317 123.997 100.677 123.59C103.007 122.847 105.08 121.46 106.655 119.589C107.702 118.356 108.261 116.053 106.748 115.471C106.302 115.348 105.836 115.313 105.376 115.366C101.793 115.39 98.9666 112.4 95.6166 111.132C94.5633 110.739 93.449 110.535 92.3247 110.527L88.5791 115.122Z" fill="#F5F5F5"/>
<path d="M393.779 229.511C393.369 230.062 392.83 230.503 392.209 230.798C391.589 231.092 390.906 231.229 390.22 231.198C386.579 230.884 385.043 225.638 381.438 225.044C381.119 224.963 380.781 224.996 380.484 225.137C379.949 225.428 379.856 226.149 379.821 226.754C379.67 229.755 379.542 232.873 380.716 235.641C382.426 239.689 386.858 243.086 385.928 247.378C380.926 245.063 378.32 239.445 377.145 234.059C375.959 228.674 375.773 223.02 373.656 217.926C372.039 219.984 368.666 218.286 367.2 216.123C365.804 214.075 364.943 211.702 363.594 209.62C362.245 207.55 360.174 205.689 357.708 205.572C355.114 205.456 352.858 207.236 350.88 208.922C349.16 210.193 347.716 211.8 346.635 213.645C345.25 216.437 345.611 219.717 345.541 222.823C345.471 226.173 344.762 229.72 342.47 232.186C340.179 234.641 335.956 235.502 333.432 233.28C332.212 232.008 331.342 230.44 330.908 228.732C328.164 220.734 325.88 212.586 324.069 204.328C323.65 206.212 321.986 208.643 320.404 207.538C320.051 207.237 319.765 206.865 319.567 206.445C316.612 201.455 311.157 198.454 305.632 196.651C300.118 194.859 294.314 194.022 288.859 192.044C285.799 190.933 282.876 189.478 280.146 187.706C279.453 188.727 279.048 189.917 278.974 191.149C278.9 192.382 279.161 193.611 279.727 194.708C280.34 195.781 281.291 196.622 282.431 197.1C283.571 197.577 284.837 197.665 286.032 197.349C287.242 196.953 288.265 196.116 289.463 195.697C290.661 195.29 292.278 195.487 292.802 196.651C293.314 197.756 292.546 199.093 292.93 200.257C293.5 202.013 296.163 202.153 297.094 203.758C297.367 204.393 297.43 205.1 297.273 205.774C297.116 206.448 296.748 207.054 296.222 207.503C295.151 208.376 293.97 209.104 292.709 209.667C288.8 211.842 286.02 215.553 282.6 218.437C279.181 221.334 274.353 223.439 270.282 221.59C271.248 216.669 265.397 213.063 264.315 208.166C263.954 206.55 264.141 204.84 263.64 203.269C262.908 200.989 260.884 199.431 259.232 197.709C257.225 195.596 255.661 193.102 254.633 190.375C253.604 187.649 253.131 184.744 253.241 181.831C253.334 179.807 253.707 177.749 253.241 175.771C252.788 173.805 251.148 171.898 249.124 171.979C244.506 172.189 238.678 172.538 236.259 168.594C235.386 167.187 235.014 165.128 236.27 164.046C236.761 163.735 237.309 163.524 237.882 163.426C238.455 163.329 239.042 163.346 239.609 163.476C243.087 163.814 246.553 164.162 250.031 164.5C252.462 164.732 255.091 164.93 257.185 163.662C259.278 162.394 260.186 159.01 258.243 157.509C256.836 156.416 254.3 156.474 253.881 154.741C253.544 153.287 255.149 151.646 254.277 150.425C253.66 149.564 252.264 149.797 251.415 150.448C250.674 151.218 249.869 151.922 249.007 152.554C247.344 153.415 245.366 152.589 243.575 152.03C241.784 151.472 239.388 151.425 238.527 153.089C237.55 154.938 239.376 157.381 238.422 159.242C237.143 161.696 232.839 160.301 231.047 162.418C229 164.837 232.443 168.466 231.757 171.56C230.873 171.999 229.891 172.2 228.906 172.145C227.922 172.09 226.968 171.78 226.139 171.246C225.325 170.693 224.676 169.929 224.263 169.035C223.849 168.142 223.685 167.154 223.789 166.175C223.952 164.779 224.685 163.348 224.196 162.034C223.669 161.019 222.8 160.223 221.742 159.789C218.369 157.916 214.995 156.051 211.622 154.194C210.68 155.939 211.866 158.091 213.355 159.405C214.832 160.708 216.694 161.696 217.671 163.418C218.289 164.611 218.429 165.995 218.062 167.288C217.694 168.581 216.847 169.685 215.693 170.374C215.547 170.474 215.381 170.542 215.206 170.572C215.032 170.602 214.853 170.594 214.681 170.548C214.52 170.454 214.379 170.328 214.267 170.178C214.156 170.028 214.075 169.857 214.03 169.676C212.25 165.105 209.563 160.603 205.283 158.218C200.99 155.822 194.837 156.322 192.022 160.335C191.359 161.289 190.905 162.383 190.324 163.395C187.241 168.757 180.611 171.293 174.423 171.13C173.818 171.169 173.214 171.027 172.69 170.723C171.689 170.037 171.736 168.571 171.887 167.361C172.108 165.651 172.317 163.953 172.538 162.243C172.544 161.199 172.947 160.196 173.667 159.44C174.818 158.532 176.47 159.102 177.936 159.079C179.042 159.03 180.106 158.64 180.982 157.964C181.859 157.287 182.505 156.356 182.833 155.299C183.128 154.232 183.125 153.104 182.826 152.038C182.527 150.972 181.942 150.008 181.135 149.25C180.472 148.622 179.576 147.831 179.925 146.982C180.067 146.748 180.258 146.548 180.485 146.395C180.712 146.242 180.969 146.141 181.239 146.098C183.856 145.342 186.636 145.144 189.207 144.237C191.789 143.341 194.29 141.503 194.907 138.84C195.093 138.025 195.174 137.037 195.907 136.629C196.277 136.481 196.672 136.402 197.07 136.397C198.469 136.196 199.742 135.48 200.64 134.389C201.537 133.298 201.994 131.91 201.921 130.499C203.154 129.639 204.887 130.278 206.085 131.197C207.272 132.116 208.33 133.326 209.784 133.721C212.494 134.466 215.112 132.058 217.927 132.046C219.113 132.046 220.334 132.465 221.439 132.058C222.568 131.651 223.242 130.534 224.103 129.708C224.976 128.871 226.488 128.371 227.29 129.266C227.058 127.58 226.837 125.905 226.604 124.23C227.974 124.575 229.403 124.623 230.793 124.37C232.184 124.117 233.504 123.57 234.665 122.764C231.734 121.775 228.814 120.787 225.883 119.798C225.575 119.722 225.291 119.57 225.057 119.356C224.417 118.67 225.057 117.6 225.569 116.82C226.813 114.947 227.023 111.865 224.976 110.934C223.58 110.295 221.986 111.062 220.648 111.807C218.508 112.993 216.368 114.191 214.228 115.378C214.03 116.599 215.519 117.297 216.438 118.111C216.998 118.608 217.394 119.263 217.575 119.989C217.756 120.715 217.712 121.48 217.45 122.181C217.188 122.882 216.72 123.487 216.108 123.918C215.495 124.348 214.767 124.582 214.018 124.59C214.44 125.141 214.733 125.778 214.876 126.457C215.019 127.135 215.008 127.837 214.844 128.51C213.413 128.615 211.971 128.72 210.529 128.824C210.289 128.872 210.042 128.872 209.803 128.824C209.563 128.776 209.336 128.681 209.133 128.545C208.668 128.138 208.737 127.417 208.621 126.812C208.429 126.089 208.025 125.44 207.462 124.949C206.898 124.457 206.2 124.146 205.457 124.055C203.975 123.889 202.475 124.027 201.049 124.462C200.428 124.681 199.75 124.664 199.141 124.416C198.796 124.187 198.534 123.853 198.396 123.462C198.143 122.664 198.1 121.815 198.271 120.996C198.443 120.177 198.822 119.415 199.374 118.786C200.491 117.546 201.721 116.412 203.049 115.401C206.059 112.766 208.271 109.341 209.435 105.514C211.808 104.514 214.263 103.164 216.647 102.164C218.564 101.275 220.573 100.601 222.638 100.152C224.581 99.8548 226.549 99.7612 228.512 99.8724C231.187 99.9189 233.874 99.9654 236.549 100.024C238.938 99.9232 241.324 100.266 243.587 101.036C245.785 101.943 247.728 103.909 247.879 106.282C247.925 106.552 247.901 106.83 247.809 107.088C247.717 107.347 247.561 107.578 247.356 107.759C247.047 107.93 246.696 108.01 246.344 107.991C244.122 108.061 243.18 108.62 240.958 108.701C242.365 110.202 243.947 111.784 245.995 112.051C249.601 112.516 252.194 108.782 253.858 105.537C253.917 106.363 254.297 107.133 254.917 107.683C255.536 108.233 256.346 108.519 257.173 108.48C258.064 108.327 258.915 107.994 259.674 107.503C266.828 103.593 274.843 101.522 282.996 101.478C282.916 100.86 283.068 100.235 283.423 99.7238C283.777 99.2123 284.309 98.8507 284.915 98.7091C286.579 98.3834 288.068 99.8141 288.87 101.303C289.661 102.792 290.161 104.513 291.441 105.63C292.709 106.747 295.163 106.689 295.663 105.083C296.152 103.536 294.535 102.21 293.197 101.291C291.848 100.384 290.44 98.6975 291.348 97.3482C298.187 95.8244 305.085 94.3122 312.099 94.0098C313.291 94.0459 314.478 93.8401 315.589 93.4049C316.139 93.1721 316.596 92.7643 316.891 92.2448C317.185 91.7253 317.3 91.1232 317.217 90.5319C315.687 90.8891 314.085 90.7834 312.614 90.2284C311.144 89.6734 309.871 88.6939 308.959 87.4145C316.159 86.8212 323.696 86.2978 330.617 87.9146L336.678 93.056C335.526 94.2541 333.991 95.3824 334.828 96.5805C335.105 96.8557 335.44 97.0645 335.808 97.1915C336.177 97.3184 336.57 97.3601 336.957 97.3133C338.422 97.3366 339.888 97.3715 341.342 97.3715C371.429 126.151 389.948 164.942 393.407 206.433C390.964 206.34 388.719 209.434 389.033 212.133C389.406 215.262 391.662 217.774 393.279 220.473C393.547 220.912 393.787 221.366 394 221.834L393.779 229.511Z" fill="#F5F5F5"/>
<g filter="url(#filter0_d)">
<circle cx="394" cy="215" r="50" fill="#F5F5F5"/>
</g>
<path d="M408.333 195H368.333C366.5 195 365 196.5 365 198.333V231.667C365 233.5 366.5 235 368.333 235H408.333C410.167 235 411.667 233.5 411.667 231.667V220L425 233.333V196.667L411.667 210V198.333C411.667 196.5 410.167 195 408.333 195Z" fill="black"/>
<g filter="url(#filter1_d)">
<circle cx="50" cy="215" r="50" fill="#F5F5F5"/>
</g>
<path fill-rule="evenodd" clip-rule="evenodd" d="M27.6673 187.833C24.459 187.833 21.8632 190.458 21.8632 193.667L21.834 246.167L33.5007 234.5H74.334C77.5423 234.5 80.1673 231.875 80.1673 228.667V193.667C80.1673 190.458 77.5423 187.833 74.334 187.833H27.6673ZM27.6673 193.667H74.334V228.667H31.0798L27.6673 232.079V193.667ZM56.834 217H33.5007V222.833H56.834V217ZM33.5007 208.25H68.5007V214.083H33.5007V208.25ZM68.5007 199.5H33.5007V205.333H68.5007V199.5Z" fill="black"/>
<g filter="url(#filter2_d)">
<circle cx="227" cy="50" r="50" fill="#F5F5F5"/>
</g>
<path fill-rule="evenodd" clip-rule="evenodd" d="M228.666 38.3334C228.666 44.7667 223.433 50 216.999 50C210.566 50 205.333 44.7667 205.333 38.3334C205.333 31.9 210.566 26.6667 216.999 26.6667C223.433 26.6667 228.666 31.9 228.666 38.3334ZM193.666 67.5C193.666 59.7334 209.199 55.8334 216.999 55.8334C224.799 55.8334 240.333 59.7334 240.333 67.5V73.3334H193.666V67.5ZM240.466 56.0333C244.333 58.8334 246.999 62.5667 246.999 67.5V73.3334H260.333V67.5C260.333 60.7667 248.666 56.9333 240.466 56.0333ZM248.666 38.3334C248.666 44.7667 243.433 50 236.999 50C235.199 50 233.533 49.5667 231.999 48.8334C234.099 45.8667 235.333 42.2334 235.333 38.3334C235.333 34.4334 234.099 30.8 231.999 27.8334C233.533 27.1 235.199 26.6667 236.999 26.6667C243.433 26.6667 248.666 31.9 248.666 38.3334Z" fill="black"/>
<g filter="url(#filter3_d)">
<circle cx="227" cy="377" r="50" fill="#F5F5F5"/>
</g>
<path d="M214.437 349.375H203.5C201.781 349.375 200.375 350.781 200.375 352.5C200.375 381.844 224.156 405.625 253.5 405.625C255.219 405.625 256.625 404.219 256.625 402.5V391.594C256.625 389.875 255.219 388.469 253.5 388.469C249.625 388.469 245.844 387.844 242.344 386.687C242.031 386.562 241.687 386.531 241.375 386.531C240.562 386.531 239.781 386.844 239.156 387.438L232.281 394.313C223.437 389.781 216.187 382.562 211.687 373.719L218.562 366.844C219.437 365.969 219.687 364.75 219.344 363.656C218.187 360.156 217.562 356.406 217.562 352.5C217.562 350.781 216.156 349.375 214.437 349.375Z" fill="black"/>
<rect x="163" y="158" width="119" height="119" rx="16" stroke="black" stroke-width="8"/>
<rect x="175.699" y="170.7" width="93.6" height="93.6" rx="11" stroke="black" stroke-width="8"/>
<rect x="186.939" y="181.94" width="71.12" height="71.12" rx="15" fill="#08E6C2"/>
<rect x="186.939" y="181.94" width="71.12" height="71.12" rx="15" stroke="black"/>
<path d="M242.608 202.048H236.258V208.398H234.141V202.048H227.791V199.932H234.141V193.582H236.258V199.932H242.608V202.048Z" fill="black"/>
<path fill-rule="evenodd" clip-rule="evenodd" d="M205.192 205.453L211.196 204.017C212.14 203.791 213.096 204.379 213.322 205.322C213.835 207.466 214.671 209.443 215.765 211.213C216.097 211.768 216.12 212.47 215.754 213.065L212.883 217.742C216.515 222.006 221.442 225.017 226.892 226.343L229.764 221.666C230.029 221.258 230.417 220.984 230.863 220.877C231.034 220.836 231.227 220.808 231.415 220.836C233.488 221.011 235.646 220.858 237.773 220.349C238.717 220.123 239.673 220.71 239.899 221.654L241.331 227.641C241.557 228.584 240.969 229.541 240.026 229.767C223.917 233.62 207.74 223.687 203.887 207.579C203.661 206.635 204.249 205.679 205.192 205.453ZM210.37 207.842C210.838 209.344 211.452 210.775 212.204 212.1L210.638 214.651C209.442 212.761 208.475 210.689 207.779 208.462L210.37 207.842ZM232.216 224.417C233.773 224.48 235.327 224.38 236.861 224.122L237.472 226.678C235.171 227.065 232.885 227.14 230.646 226.95L232.216 224.417Z" fill="black"/>
<defs>
<filter id="filter0_d" x="344" y="165" width="108" height="108" filterUnits="userSpaceOnUse" color-interpolation-filters="sRGB">
<feFlood flood-opacity="0" result="BackgroundImageFix"/>
<feColorMatrix in="SourceAlpha" type="matrix" values="0 0 0 0 0 0 0 0 0 0 0 0 0 0 0 0 0 0 127 0"/>
<feOffset dx="4" dy="4"/>
<feGaussianBlur stdDeviation="2"/>
<feColorMatrix type="matrix" values="0 0 0 0 0 0 0 0 0 0 0 0 0 0 0 0 0 0 0.25 0"/>
<feBlend mode="normal" in2="BackgroundImageFix" result="effect1_dropShadow"/>
<feBlend mode="normal" in="SourceGraphic" in2="effect1_dropShadow" result="shape"/>
</filter>
<filter id="filter1_d" x="0" y="165" width="108" height="108" filterUnits="userSpaceOnUse" color-interpolation-filters="sRGB">
<feFlood flood-opacity="0" result="BackgroundImageFix"/>
<feColorMatrix in="SourceAlpha" type="matrix" values="0 0 0 0 0 0 0 0 0 0 0 0 0 0 0 0 0 0 127 0"/>
<feOffset dx="4" dy="4"/>
<feGaussianBlur stdDeviation="2"/>
<feColorMatrix type="matrix" values="0 0 0 0 0 0 0 0 0 0 0 0 0 0 0 0 0 0 0.25 0"/>
<feBlend mode="normal" in2="BackgroundImageFix" result="effect1_dropShadow"/>
<feBlend mode="normal" in="SourceGraphic" in2="effect1_dropShadow" result="shape"/>
</filter>
<filter id="filter2_d" x="177" y="0" width="108" height="108" filterUnits="userSpaceOnUse" color-interpolation-filters="sRGB">
<feFlood flood-opacity="0" result="BackgroundImageFix"/>
<feColorMatrix in="SourceAlpha" type="matrix" values="0 0 0 0 0 0 0 0 0 0 0 0 0 0 0 0 0 0 127 0"/>
<feOffset dx="4" dy="4"/>
<feGaussianBlur stdDeviation="2"/>
<feColorMatrix type="matrix" values="0 0 0 0 0 0 0 0 0 0 0 0 0 0 0 0 0 0 0.25 0"/>
<feBlend mode="normal" in2="BackgroundImageFix" result="effect1_dropShadow"/>
<feBlend mode="normal" in="SourceGraphic" in2="effect1_dropShadow" result="shape"/>
</filter>
<filter id="filter3_d" x="177" y="327" width="108" height="108" filterUnits="userSpaceOnUse" color-interpolation-filters="sRGB">
<feFlood flood-opacity="0" result="BackgroundImageFix"/>
<feColorMatrix in="SourceAlpha" type="matrix" values="0 0 0 0 0 0 0 0 0 0 0 0 0 0 0 0 0 0 127 0"/>
<feOffset dx="4" dy="4"/>
<feGaussianBlur stdDeviation="2"/>
<feColorMatrix type="matrix" values="0 0 0 0 0 0 0 0 0 0 0 0 0 0 0 0 0 0 0.25 0"/>
<feBlend mode="normal" in2="BackgroundImageFix" result="effect1_dropShadow"/>
<feBlend mode="normal" in="SourceGraphic" in2="effect1_dropShadow" result="shape"/>
</filter>
</defs>
</svg>
