<svg width="676" height="676" viewBox="0 0 676 676" fill="none" xmlns="http://www.w3.org/2000/svg">
<g clip-path="url(#clip0)">
<path d="M676 338C676.053 381.42 667.717 424.442 651.45 464.7C651.41 464.79 651.38 464.87 651.34 464.96V464.97C640.406 491.927 626.023 517.352 608.55 540.61C605.18 545.11 601.704 549.517 598.12 553.83C596.81 555.41 595.48 556.98 594.15 558.53C587.3 566.48 580.094 574.097 572.53 581.38C570.77 583.08 568.99 584.76 567.19 586.42C566.77 586.81 566.35 587.19 565.93 587.58C557.121 595.63 547.892 603.207 538.28 610.28C531.83 615.05 525.21 619.58 518.42 623.87C516.93 624.82 515.43 625.753 513.92 626.67C511.3 628.27 508.657 629.833 505.99 631.36C502.51 633.36 498.987 635.297 495.42 637.17C493.98 637.94 492.531 638.68 491.08 639.42C488.96 640.51 486.83 641.56 484.68 642.59C484.31 642.77 483.94 642.95 483.57 643.12C482.17 643.8 480.75 644.46 479.33 645.12C460.837 653.65 441.604 660.475 421.87 665.51C421.76 665.54 421.66 665.56 421.55 665.59C420.26 665.92 418.96 666.24 417.66 666.55C416.69 666.79 415.71 667.02 414.73 667.24C414.61 667.279 414.486 667.31 414.36 667.33C412.35 667.8 410.34 668.25 408.31 668.66C407.17 668.9 406.03 669.14 404.89 669.37C404.2 669.52 403.5 669.65 402.81 669.78C401.94 669.95 401.08 670.11 400.21 670.28C399.73 670.38 399.25 670.46 398.76 670.54C397.66 670.74 396.56 670.94 395.47 671.13C393.61 671.45 391.73 671.76 389.86 672.04C388.5 672.25 387.15 672.45 385.79 672.64C384.19 672.87 382.59 673.08 380.98 673.28C380.54 673.35 380.1 673.4 379.66 673.45C379.09 673.52 378.521 673.59 377.95 673.66C376.8 673.8 375.65 673.93 374.49 674.05C373.89 674.12 373.3 674.18 372.7 674.24C371.56 674.36 370.42 674.47 369.28 674.57C367.81 674.71 366.34 674.83 364.86 674.95C363.06 675.09 361.27 675.22 359.46 675.33C358.3 675.4 357.14 675.47 355.97 675.53C352.99 675.69 350.01 675.8 347.01 675.88C345.52 675.92 344.02 675.95 342.52 675.97H342.49C341 675.99 339.5 676 338 676C322.799 676.006 307.615 674.991 292.55 672.96C281.5 671.48 270.627 669.473 259.93 666.94C259.5 666.84 259.07 666.74 258.65 666.63C257.57 666.38 256.5 666.11 255.43 665.84C254.48 665.6 253.54 665.35 252.59 665.1C228.107 658.729 204.423 649.607 181.99 637.91C181.88 637.85 181.76 637.79 181.65 637.73C181 637.39 180.36 637.06 179.72 636.71C178.31 635.97 176.907 635.217 175.51 634.45C167.56 630.08 159.814 625.407 152.27 620.43C150.33 619.16 148.41 617.87 146.51 616.56C145.9 616.14 145.3 615.72 144.7 615.3C144.07 614.86 143.44 614.42 142.82 613.98C141.17 612.81 139.53 611.627 137.9 610.43C131.15 605.47 124.6 600.267 118.25 594.82C95.743 575.544 75.8542 553.406 59.0904 528.97C53.2404 520.45 47.7804 511.657 42.7104 502.59C14.6135 452.29 -0.0930223 395.616 0.000442734 338C0.000442734 151.33 151.33 0 338 0C524.67 0 676 151.33 676 338Z" fill="#08E6C2"/>
<path opacity="0.2" d="M392.35 666.63C393.43 666.38 394.5 666.11 395.57 665.84C396.52 665.6 397.46 665.35 398.41 665.1C398.46 663.11 398.53 660.92 398.6 658.55C399.19 639.99 400.58 610.11 403.86 574.11C404.04 572.18 404.22 570.237 404.4 568.28C405.57 556.08 406.94 543.25 408.58 529.95C408.63 529.51 408.69 529.08 408.74 528.64C410.07 517.86 411.58 506.79 413.28 495.51C414.47 487.62 415.756 479.643 417.14 471.58C417.24 471.02 417.34 470.45 417.44 469.89C417.84 467.56 418.25 465.24 418.67 462.9C419.84 456.39 421.09 449.84 422.4 443.29C427.01 420.25 432.5 397.07 439.05 374.52C445.703 351.134 453.898 328.214 463.58 305.91C471.089 288.584 480.033 271.916 490.32 256.08C490.47 255.85 490.62 255.63 490.77 255.4C503.92 235.59 518.95 218.78 536.11 206.21L532.55 201.35C516.11 213.4 501.03 229.433 487.31 249.45C487.24 249.55 487.18 249.64 487.11 249.74C476.792 265.039 467.787 281.184 460.19 298C450.017 320.494 441.435 343.674 434.51 367.37C427.95 389.39 422.066 413.247 416.86 438.94C415.03 447.99 413.283 457.263 411.62 466.76C411.34 468.38 411.06 470 410.78 471.63C410.78 471.65 410.77 471.68 410.77 471.7C410.34 474.2 409.93 476.7 409.51 479.23C408.47 485.6 407.49 491.92 406.57 498.19C405.15 507.85 403.866 517.343 402.72 526.67C402.34 529.75 401.973 532.807 401.62 535.84C401.12 540.12 400.646 544.343 400.2 548.51C399.57 554.31 398.993 559.987 398.47 565.54L398.32 567.07C398.24 567.95 398.16 568.83 398.08 569.7C394.02 613.49 392.75 648.86 392.35 666.63Z" fill="black"/>
<path opacity="0.2" d="M469.01 637.91C469.12 637.85 469.24 637.79 469.35 637.73C471.41 636.66 473.45 635.57 475.49 634.45C476.16 626.47 477.06 617.7 478.24 608.48C478.49 606.58 478.74 604.65 479.02 602.71C479.16 601.67 479.31 600.62 479.46 599.56C480.64 591.44 482.04 583.06 483.72 574.64C490.55 540.28 501.89 505.16 520.72 483.48C521.73 482.31 522.76 481.19 523.83 480.1C526.481 477.345 529.362 474.819 532.44 472.55L528.88 467.7C524.583 470.878 520.628 474.494 517.08 478.49C515.83 479.88 514.61 481.327 513.42 482.83C496.09 504.64 485.27 536.93 478.53 568.9C476.77 577.24 475.29 585.57 474.03 593.68C473.71 595.8 473.403 597.9 473.11 599.98C471.16 613.72 469.87 626.7 469.01 637.91Z" fill="black"/>
<path opacity="0.2" d="M569.739 206.07C586.356 206.07 599.828 192.599 599.828 175.982C599.828 159.364 586.356 145.893 569.739 145.893C553.121 145.893 539.65 159.364 539.65 175.982C539.65 192.599 553.121 206.07 569.739 206.07Z" fill="black"/>
<path opacity="0.2" d="M560.049 465.079C576.667 465.079 590.138 451.608 590.138 434.991C590.138 418.373 576.667 404.902 560.049 404.902C543.432 404.902 529.961 418.373 529.961 434.991C529.961 451.608 543.432 465.079 560.049 465.079Z" fill="black"/>
<path opacity="0.2" d="M450.285 226.521C456.665 262.519 442.58 295.114 442.58 295.114C442.58 295.114 418.15 269.345 411.77 233.348C405.389 197.351 419.475 164.756 419.475 164.756C419.475 164.756 443.904 190.524 450.285 226.521Z" fill="black"/>
<path opacity="0.2" d="M550.282 311.971C515.947 324.526 481.445 316.469 481.445 316.469C481.445 316.469 502.611 288.056 536.946 275.501C571.281 262.946 605.783 271.003 605.783 271.003C605.783 271.003 584.617 299.416 550.282 311.971Z" fill="black"/>
<path opacity="0.2" d="M556.105 541.333C532.039 550.133 507.822 544.392 507.822 544.392C507.822 544.392 522.624 524.384 546.69 515.584C570.756 506.784 594.973 512.525 594.973 512.525C594.973 512.525 580.171 532.533 556.105 541.333Z" fill="black"/>
<path d="M439.961 536.27L441.181 536.9C441.061 538.2 440.771 539 439.961 536.27Z" fill="#2F2E41"/>
<path d="M441.57 536.69C441.58 536.83 441.6 536.98 441.61 537.12L441.18 536.9C441.19 536.77 441.2 536.63 441.22 536.49C441.32 534.74 441.2 532.67 441.57 536.69Z" fill="#2F2E41"/>
<path d="M311.684 488.85C402.374 488.85 475.893 415.331 475.893 324.641C475.893 233.951 402.374 160.432 311.684 160.432C220.993 160.432 147.475 233.951 147.475 324.641C147.475 415.331 220.993 488.85 311.684 488.85Z" fill="#2F2E41"/>
<path d="M325.2 482.157C380.122 482.157 424.645 437.634 424.645 382.713C424.645 327.791 380.122 283.268 325.2 283.268C270.279 283.268 225.756 327.791 225.756 382.713C225.756 437.634 270.279 482.157 325.2 482.157Z" fill="#D0CDE1"/>
<path d="M552.27 573.31L552.15 573.34L529.02 578.89L480.86 590.45L474.29 592.03L401.05 609.6L394.83 611.1L217.14 653.74C205.128 649.145 193.392 643.86 181.99 637.91C181.88 637.85 181.76 637.79 181.65 637.73C181 637.39 180.36 637.06 179.72 636.71C178.31 635.97 176.907 635.217 175.51 634.45C167.56 630.08 159.814 625.407 152.27 620.43C150.33 619.16 148.41 617.87 146.51 616.56C145.9 616.14 145.3 615.72 144.7 615.3C144.07 614.86 143.44 614.42 142.82 613.98C141.17 612.81 139.53 611.627 137.9 610.43C155.16 579.06 196.26 558.21 237.36 546.8C268.38 538.18 275.2 509.85 274.61 484.64C274.46 478.89 273.973 473.153 273.15 467.46C271.897 458.399 269.904 449.456 267.19 440.72L366.64 444.04L376.9 467.68C376.62 470.277 376.529 472.89 376.63 475.5C377.41 494.89 389.38 507.43 404.15 515.52C406.07 516.57 408.04 517.55 410.04 518.46C434.26 529.47 462.77 530.22 462.77 530.22C471.452 529.26 480.221 529.425 488.86 530.71C490.96 531.03 493 531.413 494.98 531.86C506.541 534.444 517.461 539.331 527.09 546.23C530.768 548.846 534.248 551.731 537.5 554.86C543.282 560.271 548.256 566.484 552.27 573.31Z" fill="#D0CDE1"/>
<path d="M567.19 586.42C566.77 586.81 566.35 587.19 565.93 587.58C557.121 595.63 547.891 603.207 538.28 610.28C531.83 615.05 525.21 619.58 518.42 623.87C516.93 624.82 515.43 625.753 513.92 626.67C511.3 628.27 508.656 629.833 505.99 631.36C502.51 633.36 498.986 635.297 495.42 637.17C493.98 637.94 492.53 638.68 491.08 639.42C488.96 640.51 486.83 641.56 484.68 642.59C484.31 642.77 483.94 642.95 483.57 643.12L479.34 639.61L529.02 578.89L539.01 566.68C539.01 566.68 543 566.68 552.15 573.34C557.207 577.104 561.986 581.228 566.45 585.68C566.69 585.93 566.94 586.17 567.19 586.42Z" fill="#D0CDE1"/>
<path d="M566.491 585.74C566.356 586.368 566.169 586.984 565.931 587.58C557.121 595.63 547.892 603.207 538.281 610.28C529.942 613.286 521.29 615.342 512.491 616.41C512.491 616.41 513.241 620.17 513.921 626.67C511.301 628.27 508.657 629.833 505.991 631.36C502.511 633.36 498.987 635.297 495.421 637.17C493.981 637.94 492.531 638.68 491.081 639.42C488.961 640.51 486.831 641.56 484.681 642.59C484.311 642.77 483.941 642.95 483.571 643.12C482.171 643.8 480.751 644.46 479.331 645.12C460.837 653.65 441.604 660.475 421.871 665.51C421.761 665.54 421.661 665.56 421.551 665.59C420.261 665.92 418.961 666.24 417.661 666.55C416.691 666.79 415.711 667.02 414.731 667.24C414.61 667.279 414.486 667.31 414.361 667.33C412.351 667.8 410.341 668.25 408.311 668.66C407.171 668.9 406.031 669.14 404.891 669.37C404.201 669.52 403.501 669.65 402.811 669.78C401.941 669.95 401.081 670.11 400.211 670.28C399.731 670.38 399.251 670.46 398.761 670.54C397.661 670.74 396.561 670.94 395.471 671.13C393.611 671.45 391.731 671.76 389.861 672.04C388.501 672.25 387.151 672.45 385.791 672.64C384.191 672.87 382.591 673.08 380.981 673.28C380.541 673.35 380.101 673.4 379.661 673.45C379.091 673.52 378.521 673.59 377.951 673.66C376.801 673.8 375.651 673.93 374.491 674.05C373.891 674.12 373.301 674.18 372.701 674.24C371.561 674.36 370.421 674.47 369.281 674.57C367.811 674.71 366.341 674.83 364.861 674.95C363.061 675.09 361.271 675.22 359.461 675.33C358.301 675.4 357.141 675.47 355.971 675.53C352.991 675.69 350.011 675.8 347.011 675.88C345.521 675.92 344.021 675.95 342.521 675.97H342.491C341.001 675.99 339.501 676 338.001 676C322.8 676.006 307.615 674.991 292.551 672.96C281.501 671.48 270.627 669.473 259.931 666.94C259.501 666.84 259.071 666.74 258.651 666.63C257.571 666.38 256.501 666.11 255.431 665.84C254.481 665.6 253.541 665.35 252.591 665.1C228.107 658.729 204.423 649.607 181.991 637.91C181.881 637.85 181.761 637.79 181.651 637.73C181.001 637.39 180.361 637.06 179.721 636.71C234.611 623.92 321.351 603.75 396.621 586.47C398.731 585.99 400.827 585.51 402.911 585.03C430.711 578.65 456.751 572.71 478.781 567.74C481.061 567.23 483.294 566.73 485.481 566.24C509.151 560.92 527.531 556.88 537.501 554.86C540.188 554.246 542.905 553.769 545.641 553.43L566.451 585.68L566.491 585.74Z" fill="#2F2E41"/>
<path d="M161.448 254.765C188.463 254.765 210.362 232.866 210.362 205.851C210.362 178.837 188.463 156.938 161.448 156.938C134.434 156.938 112.535 178.837 112.535 205.851C112.535 232.866 134.434 254.765 161.448 254.765Z" fill="#2F2E41"/>
<path d="M461.917 240.79C488.931 240.79 510.831 218.89 510.831 191.876C510.831 164.862 488.931 142.963 461.917 142.963C434.903 142.963 413.004 164.862 413.004 191.876C413.004 218.89 434.903 240.79 461.917 240.79Z" fill="#2F2E41"/>
<path d="M409.509 170.913C409.511 158.849 413.971 147.212 422.032 138.236C430.093 129.261 441.187 123.581 453.182 122.289C446.351 121.543 439.439 122.245 432.898 124.348C426.356 126.451 420.331 129.909 415.215 134.497C410.099 139.084 406.007 144.698 403.206 150.973C400.405 157.247 398.957 164.042 398.957 170.913C398.957 177.785 400.405 184.579 403.206 190.854C406.007 197.128 410.099 202.742 415.215 207.33C420.331 211.917 426.356 215.375 432.898 217.479C439.439 219.582 446.351 220.284 453.182 219.537C441.187 218.245 430.093 212.566 422.032 203.59C413.971 194.615 409.511 182.977 409.509 170.913V170.913Z" fill="#2F2E41"/>
<path d="M106.796 245.416C98.3538 236.798 93.3947 225.364 92.8713 213.312C92.3479 201.259 96.2971 189.438 103.96 180.12C98.5588 184.368 94.1131 189.706 90.9126 195.787C87.7122 201.868 85.8288 208.554 85.3852 215.411C84.9417 222.269 85.9479 229.142 88.3383 235.585C90.7287 242.027 94.4496 247.893 99.2587 252.801C104.068 257.709 109.857 261.549 116.249 264.071C122.641 266.592 129.493 267.738 136.358 267.434C143.223 267.131 149.946 265.384 156.091 262.308C162.236 259.233 167.663 254.897 172.02 249.583C162.548 257.055 150.649 260.762 138.61 259.993C126.57 259.224 115.24 254.032 106.796 245.416V245.416Z" fill="#2F2E41"/>
<path d="M311.683 247.777C253.796 247.777 206.869 275.151 206.869 308.919C206.869 324.028 216.302 337.837 231.872 348.504L252.05 333.884L246.563 356.788C248.84 357.844 251.164 358.865 253.589 359.809L283.733 324.641V367.845C292.976 369.326 302.322 370.066 311.683 370.06C369.571 370.06 416.498 342.686 416.498 308.919C416.498 275.151 369.571 247.777 311.683 247.777Z" fill="#2F2E41"/>
<path d="M413.003 191.876C413.003 191.876 405.407 226.814 452.877 240.79L413.003 191.876Z" fill="#2F2E41"/>
<path d="M206.868 198.235C206.868 198.235 224.337 237.296 171.93 254.765L206.868 198.235Z" fill="#2F2E41"/>
<path d="M232.776 421.754C237.183 420.52 238.356 410.945 235.394 400.367C232.433 389.79 226.46 382.215 222.053 383.449C217.645 384.683 216.473 394.258 219.434 404.836C222.395 415.413 228.369 422.988 232.776 421.754Z" fill="#D0CDE1"/>
<path d="M434.574 386.537C435.249 375.573 432.093 366.457 427.525 366.176C422.957 365.895 418.706 374.554 418.031 385.518C417.356 396.482 420.512 405.597 425.08 405.879C429.648 406.16 433.899 397.5 434.574 386.537Z" fill="#D0CDE1"/>
</g>
<defs>
<clipPath id="clip0">
<rect width="676" height="676" fill="white"/>
</clipPath>
</defs>
</svg>
