<svg width="676" height="676" viewBox="0 0 676 676" fill="none" xmlns="http://www.w3.org/2000/svg">
<g clip-path="url(#clip0)">
<path d="M676 338C676.06 383.755 666.799 429.042 648.78 471.1L647.66 473.68C617.181 543.019 564.33 600.135 497.56 635.894C430.791 671.653 353.958 683.989 279.35 670.93C277.32 670.57 275.293 670.197 273.27 669.81C252.363 665.757 231.891 659.72 212.13 651.78C208.92 650.49 205.733 649.153 202.57 647.77C200.41 646.83 198.25 645.86 196.11 644.86C137.569 617.728 88.0051 574.426 53.2593 520.058C18.5135 465.69 0.0343666 402.522 0 338C0 151.33 151.33 0 338 0C524.67 0 676 151.33 676 338Z" fill="#08E6C2"/>
<path opacity="0.2" d="M279.351 670.93C277.321 670.57 275.294 670.197 273.271 669.81C271.951 631.5 267.421 552.87 251.971 470.52C243.521 425.45 231.791 379.25 215.521 337.95C209.947 323.66 203.58 309.691 196.451 296.11C180.011 265.06 160.071 238.92 135.891 221.21L139.451 216.35C159.561 231.09 177.634 251.783 193.671 278.43C198.481 286.41 203.101 294.923 207.531 303.97C212.281 313.65 216.811 323.927 221.121 334.8C223.871 341.72 226.527 348.88 229.091 356.28C240.251 388.41 249.737 425.07 257.551 466.26C259.281 475.36 260.927 484.683 262.491 494.23C274.601 568.2 278.251 636.59 279.351 670.93Z" fill="black"/>
<path opacity="0.2" d="M202.571 647.77C200.411 646.83 198.251 645.86 196.111 644.86C194.021 622.16 190.181 594 183.161 567.27C180.086 555.265 176.139 543.5 171.351 532.07C163.341 513.32 152.971 497.38 139.561 487.55L143.121 482.7C157.161 492.98 167.991 509.23 176.361 528.24C185.791 549.66 192.081 574.59 196.271 598.41C199.381 616.1 201.341 633.19 202.571 647.77Z" fill="black"/>
<path opacity="0.2" d="M102.262 221.07C118.88 221.07 132.351 207.599 132.351 190.982C132.351 174.364 118.88 160.893 102.262 160.893C85.6449 160.893 72.1738 174.364 72.1738 190.982C72.1738 207.599 85.6449 221.07 102.262 221.07Z" fill="black"/>
<path opacity="0.2" d="M111.952 480.079C128.569 480.079 142.04 466.608 142.04 449.991C142.04 433.373 128.569 419.902 111.952 419.902C95.3344 419.902 81.8633 433.373 81.8633 449.991C81.8633 466.608 95.3344 480.079 111.952 480.079Z" fill="black"/>
<path opacity="0.2" d="M221.715 241.521C215.335 277.519 229.42 310.114 229.42 310.114C229.42 310.114 253.85 284.345 260.23 248.348C266.611 212.351 252.526 179.756 252.526 179.756C252.526 179.756 228.096 205.524 221.715 241.521Z" fill="black"/>
<path opacity="0.2" d="M121.718 326.971C156.053 339.526 190.555 331.469 190.555 331.469C190.555 331.469 169.389 303.056 135.054 290.501C100.719 277.946 66.2168 286.003 66.2168 286.003C66.2168 286.003 87.3829 314.416 121.718 326.971Z" fill="black"/>
<path opacity="0.2" d="M115.895 556.333C139.961 565.133 164.178 559.392 164.178 559.392C164.178 559.392 149.376 539.384 125.31 530.584C101.244 521.784 77.0273 527.524 77.0273 527.524C77.0273 527.524 91.829 547.533 115.895 556.333Z" fill="black"/>
<path d="M337.305 412.849C410.08 412.849 469.075 353.853 469.075 281.079C469.075 208.304 410.08 149.309 337.305 149.309C264.531 149.309 205.535 208.304 205.535 281.079C205.535 353.853 264.531 412.849 337.305 412.849Z" fill="#D0CDE1"/>
<path d="M285.834 381.965C285.834 381.965 302.305 460.204 302.305 468.439C302.305 476.675 380.544 513.735 380.544 513.735L450.547 501.382L475.254 427.261C475.254 427.261 434.075 365.494 434.075 340.787L285.834 381.965Z" fill="#D0CDE1"/>
<path d="M648.78 471.1L647.66 473.68C617.181 543.019 564.33 600.135 497.561 635.894C430.791 671.653 353.958 683.989 279.35 670.93C277.32 670.57 275.294 670.197 273.27 669.81C252.363 665.757 231.891 659.72 212.13 651.78C208.92 650.49 205.734 649.153 202.57 647.77C200.41 646.83 198.25 645.86 196.11 644.86C176.713 635.874 158.213 625.065 140.86 612.58L125.24 567.27L134.02 560.57L152.08 546.78L171.35 532.07L176.36 528.24L251.97 470.52L257.55 466.26L296.85 436.26L296.86 436.25C296.86 436.25 339.36 505.5 401.13 484.91C462.9 464.32 461.55 405.28 461.55 405.28L648.78 471.1Z" fill="#2F2E41"/>
<path d="M223.035 174.916C223.035 174.916 264.872 84.2702 345.059 105.188C425.245 126.107 470.568 157.484 474.054 188.862C477.541 220.239 472.311 267.305 472.311 267.305C472.311 267.305 463.595 202.807 407.813 216.753C352.031 230.698 264.872 220.239 264.872 220.239L250.926 345.749C250.926 345.749 235.238 323.087 217.806 337.033C200.374 350.978 167.253 202.807 223.035 174.916Z" fill="#2F2E41"/>
<path d="M212.13 651.78C208.92 650.49 205.733 649.153 202.57 647.77C200.41 646.83 198.25 645.86 196.11 644.86C164.029 629.984 134.474 610.177 108.52 586.16C117.71 573.64 125.24 567.27 125.24 567.27H187.01L196.27 598.41L212.13 651.78Z" fill="#2F2E41"/>
<path d="M594.67 464.32L647.66 473.68C633.48 505.985 614.328 535.87 590.9 562.25L594.67 464.32Z" fill="#2F2E41"/>
</g>
<defs>
<clipPath id="clip0">
<rect width="676" height="676" fill="white"/>
</clipPath>
</defs>
</svg>
